<svg id="visual" viewBox="0 0 900 600" width="900" height="600" xmlns="http://www.w3.org/2000/svg" xmlns:xlink="http://www.w3.org/1999/xlink" version="1.1"><path d="M0 387L30 386.7C60 386.3 120 385.7 180 387.3C240 389 300 393 360 402.2C420 411.3 480 425.7 540 434.8C600 444 660 448 720 439.3C780 430.7 840 409.3 870 398.7L900 388L900 601L870 601C840 601 780 601 720 601C660 601 600 601 540 601C480 601 420 601 360 601C300 601 240 601 180 601C120 601 60 601 30 601L0 601Z" fill="#F0BE37" stroke-linecap="round" stroke-linejoin="miter"></path></svg>